<svg width="345" height="53" viewBox="0 0 345 53" fill="none" xmlns="http://www.w3.org/2000/svg">
<path d="M8.62414 50.1687C26.155 47.5877 42.0789 40.6241 58.2949 34.5857C56.5418 34.4152 54.8618 34.0987 53.1087 34.9022C47.3868 37.5318 41.5189 39.8206 35.5535 41.8415C34.3848 42.2311 33.4595 42.2554 32.6317 41.3059C31.9499 40.5267 31.2438 40.5024 30.2699 40.9163C24.9863 43.1563 19.7027 45.3477 14.3947 47.5147C14.0782 47.6364 13.6156 48.2208 13.299 47.5147C13.0556 46.9303 13.3477 46.5164 13.9077 46.2486C14.6139 45.9077 15.32 45.5181 16.3426 44.9825C15.3687 44.9094 14.7112 44.9094 14.0782 44.812C12.0573 44.5198 10.4016 43.4242 8.79458 42.2554C8.23457 41.8415 7.67455 41.4519 6.91975 41.5493C6.62757 41.598 6.31104 41.6467 6.1893 41.9146C6.04321 42.2311 6.33539 42.4259 6.53018 42.6207C8.11282 44.3007 9.69547 45.9807 11.2538 47.6608C11.4729 47.9043 12.106 48.1478 11.6677 48.5617C11.3025 48.9026 10.7425 49.0243 10.2555 48.513C9.23285 47.4904 8.16152 46.4921 7.11454 45.4694C6.1406 44.5442 5.14232 43.6676 4.21708 42.7181C3.75446 42.2311 3.34053 42.085 2.75617 42.4502C2.34225 42.6937 1.90398 42.9128 1.44136 43.0346C1.00308 43.132 0.443071 43.9598 0.150889 43.2537C-0.116943 42.6207 -0.0925947 41.6954 0.7596 41.2328C1.78223 40.6728 2.82922 40.1615 3.8762 39.6258C4.16838 39.4797 4.43621 39.3093 4.70404 39.1388C4.94753 38.9928 5.21536 38.7736 5.02058 38.4814C4.85014 38.2136 4.5823 38.4571 4.38751 38.5545C3.46227 39.0171 2.51269 39.4797 1.5631 39.9667C1.22222 39.2606 1.44136 38.8223 2.02572 38.5058C2.43964 38.2623 2.87791 38.0432 3.29184 37.7753C5.53189 36.2901 7.57716 36.3144 9.69547 38.1406C11.4242 39.6502 13.299 41.0137 15.32 42.158C16.7078 42.9372 18.0226 43.0833 19.5566 42.3528C23.8176 40.3319 28.0542 38.238 32.2178 35.9979C32.3882 35.9005 32.583 35.8031 32.7534 35.7057C33.0456 35.5109 33.5082 35.2918 33.2647 34.9022C33.0456 34.537 32.6804 34.9266 32.4369 35.0483C30.3186 36.0466 28.2003 37.0692 26.082 38.0432C25.8385 38.1649 25.4733 38.6519 25.1811 38.0919C24.9376 37.6536 25.1324 37.3371 25.5706 37.1179C25.8628 36.9718 26.1794 36.8501 26.3985 36.631C26.6907 36.3631 27.5672 36.4362 27.1289 35.6814C26.7881 35.1214 26.3254 34.7561 25.5219 35.1944C23.5741 36.2414 21.5532 37.191 19.5566 38.1649C19.2401 38.3353 18.8992 38.4571 18.4853 38.6519C18.607 36.8257 18.8992 35.3161 20.8714 34.537C22.5271 33.9039 24.0367 32.93 25.595 32.1021C25.8385 31.9804 26.1063 31.8343 26.3011 31.6395C26.5689 31.3717 26.4959 31.0308 26.3741 30.7386C26.2037 30.3004 25.8628 30.5438 25.668 30.6656C23.7445 32.1752 22.5027 31.1526 21.3584 29.5943C21.261 29.4725 21.1392 29.3508 21.0175 29.229C19.5079 27.6707 19.5566 27.5246 21.4801 26.3559C23.6228 25.0655 25.8872 25.2846 28.2003 25.6011C37.8422 26.9403 47.4842 28.3038 57.1505 29.643C58.1245 29.789 58.928 29.9595 58.2462 31.2013C58.0027 31.6639 58.368 31.7126 58.6602 31.8587C60.3889 32.7352 62.0202 32.9787 63.9194 32.0048C67.0117 30.4465 70.1526 28.9369 73.1231 27.1107C73.8049 26.6968 74.3162 26.5507 74.9005 27.1838C75.1684 27.4759 75.6067 27.7438 75.9719 27.3542C76.3128 26.989 75.8745 26.6968 75.7284 26.4046C74.3405 23.8967 73.1718 21.2671 72.1735 18.5888C71.857 17.7609 71.4187 17.4687 70.5665 17.4687C67.8639 17.4931 65.4534 18.5157 62.9942 19.4166C58.1732 21.2184 53.5957 23.5072 49.1399 26.0394C48.0442 26.6724 47.119 26.7211 46.0233 26.6238C44.5381 26.502 43.0528 26.3072 41.5432 26.2342C40.7397 26.1855 40.618 25.8933 40.7641 25.1628C40.9589 24.2863 41.2754 23.5315 42.0058 23.0202C44.5381 21.1941 47.1677 19.5627 50.0895 18.4183C51.453 17.8827 52.7678 17.7609 54.0583 18.4914C56.0792 19.6358 58.1001 19.514 60.2428 18.881C63.6516 17.8827 67.036 16.8113 70.5422 16.1539C73.2449 15.6426 74.2188 16.1539 75.3145 18.6375C76.2397 20.7558 77.1893 22.8254 78.0171 24.9924C78.9911 27.5003 78.5528 28.7421 76.3128 30.276C72.7822 32.6622 68.8621 34.2935 64.9664 35.9735C56.0062 39.7962 46.6077 42.3772 37.3553 45.372C29.5881 47.8799 21.7966 50.2661 14.0295 52.7253C13.0799 53.0174 12.2034 53.334 11.8381 51.9948C11.7651 51.7513 11.546 51.6296 11.2538 51.7513C9.84156 52.3357 9.47634 51.1913 8.62414 50.1687ZM26.4715 26.3072C26.4472 26.429 26.4472 26.5264 26.4228 26.6481C26.5933 26.6968 26.7881 26.7698 26.9585 26.7942C35.9674 28.6203 45.0007 30.4708 54.0096 32.2969C54.9348 32.4917 55.787 32.2969 56.4444 31.5665C56.6879 31.2986 57.1019 31.0795 56.9801 30.6899C56.834 30.276 56.3471 30.4221 56.0062 30.3734C48.0929 29.2777 40.1554 28.1577 32.2421 27.062C30.3429 26.7942 28.3951 26.5507 26.4715 26.3072ZM43.1015 23.4828C44.3433 23.7506 45.4146 24.1889 46.2668 23.7506C48.0686 22.8254 49.8704 21.9245 51.94 20.9506C48.1903 19.4897 45.8285 21.6323 43.1015 23.4828ZM50.4791 19.3436C51.0634 19.5871 51.5748 19.7575 52.013 20.001C52.5487 20.2932 53.4983 20.2201 53.547 20.9262C53.5713 21.5593 52.6461 21.5836 52.1835 21.9245C52.1591 21.9489 52.1104 21.9732 52.0861 21.9732C51.7696 22.1436 51.5017 22.3628 51.7209 22.728C51.9156 23.0445 52.2078 22.8741 52.4757 22.7524C53.547 22.1923 54.6183 21.6567 55.6896 21.0967C56.3957 20.7314 56.274 20.4393 55.6166 20.1714C54.6427 19.7818 53.6931 19.3679 52.7191 19.0027C52.013 18.7592 51.3069 18.7836 50.4791 19.3436Z" fill="#E51A47"/>
<path d="M80.3302 21.9001C80.7442 21.9732 80.939 22.2654 81.1337 22.6063C84.1529 27.5003 86.5634 32.6621 87.8052 38.3353C87.8539 38.6032 88 38.8953 88 39.1632C88 39.7962 87.9757 40.5754 87.2939 40.8189C86.6365 41.0624 86.4904 40.2832 86.1982 39.8936C85.6139 39.1145 85.1756 38.2379 84.5425 37.5075C81.3772 33.7335 80.1355 29.1316 78.8206 24.5541C78.6502 23.9941 78.8206 23.7019 79.1128 23.3367H79.0885C79.5754 23.3124 79.7946 23.0445 79.8189 22.6063L79.7946 22.6306C80.0868 22.5576 80.2815 22.4602 80.0381 22.1193L80.0137 22.1436C80.4033 22.2897 80.452 22.168 80.3302 21.9001ZM82.059 31.956C83.3251 34.8535 85.2486 37.337 87.0017 39.991C87.4156 39.4554 87.4643 39.0171 87.1965 38.6032C85.7356 36.217 83.9582 34.05 82.059 31.956Z" fill="#E51A47"/>
<path d="M78.7963 17.6635C77.9441 17.9557 77.0919 17.6148 76.3371 17.9557C75.8988 18.1505 75.8258 17.7122 75.6553 17.4688C72.5631 12.7695 70.4935 7.63199 69.276 2.1536C69.2274 1.91012 69.1786 1.66663 69.1786 1.4475C69.203 0.887482 69.2517 0.230074 69.8604 0.0352868C70.4691 -0.159501 70.6152 0.497907 70.883 0.887482C72.1979 2.81101 73.4883 4.78323 74.8031 6.70675C75.4362 7.65634 75.9719 8.63028 76.2884 9.72596C77.1162 12.3556 77.9441 14.9852 78.7963 17.6635ZM74.8275 9.0442C74.9979 8.94681 75.1684 8.84942 75.3145 8.75202C73.7805 6.04935 71.93 3.54146 70.1039 0.790088C69.7387 1.61793 69.763 2.1536 70.1282 2.64057C71.6865 4.78323 73.2448 6.90154 74.8275 9.0442Z" fill="#E51A47"/>
<path d="M51.7209 27.0377C55.154 25.6498 58.6115 24.2863 62.0446 22.8741C62.4585 22.7037 62.6777 22.8254 62.9942 23.1176C64.9177 25.0168 64.9177 25.0168 63.6273 27.4516C62.5803 29.3995 62.5803 29.3995 60.4133 28.9612C57.5402 28.4012 54.6427 27.8412 51.7696 27.3055C51.7209 27.2325 51.7209 27.1351 51.7209 27.0377Z" fill="#E51A47"/>
<path d="M67.9125 19.027C68.0099 20.3419 68.0343 21.3888 67.7908 22.4115C67.4256 23.848 67.7665 24.9924 68.8134 26.015C69.0326 26.2342 69.7143 26.5264 69.1543 27.0133C68.643 27.4516 68.1317 27.3785 67.7908 26.7211C67.6691 26.5264 67.4743 26.3559 67.1577 25.9907C66.7438 27.6951 65.916 28.8638 64.0898 29.0586C64.7473 27.9386 65.2586 26.8185 65.7699 25.6985C66.1108 24.9437 66.1108 24.3593 65.4777 23.7506C65.1125 23.3854 64.796 22.9471 64.5038 22.5089C64.382 22.3141 63.822 22.0949 64.382 21.7784C64.7473 21.5836 65.1368 21.194 65.5264 21.7541C65.8429 22.168 66.1595 22.5819 66.6464 23.1906C67.0604 21.8028 67.4256 20.561 67.9125 19.027Z" fill="#E51A47"/>
<path d="M79.1372 23.3367C78.4555 23.2393 78.0902 22.8254 77.8467 22.1923C77.4572 21.194 76.9702 20.2201 76.5319 19.2218C76.3128 18.7105 76.2641 18.2479 77.0432 18.2235C78.3337 18.1992 79.6242 18.1505 80.8903 18.3453C81.7181 18.467 81.8642 18.8566 81.5234 19.6114C81.1825 20.3905 80.4764 20.9993 80.3303 21.8758L80.3546 21.8515C80.0868 21.7541 80.0868 21.9245 80.0868 22.1193L80.1111 22.0949C79.819 22.168 79.6242 22.2654 79.8677 22.6063L79.892 22.5819C79.332 22.5576 79.0885 22.8254 79.1372 23.3367ZM81.1825 19.027C79.9894 18.6131 79.0642 18.7592 78.1633 18.7592C77.8224 18.7592 77.3841 18.5888 77.165 18.9783C76.9459 19.3679 77.3354 19.7088 77.4572 20.0984C77.5789 20.5123 77.8467 20.5366 78.212 20.3662C79.1129 19.9279 80.0138 19.5384 81.1825 19.027Z" fill="#E51A47"/>
<path d="M115.688 32.872H107.208L105.064 37H99.272L111.528 14.536H117.832L122.152 37H116.36L115.688 32.872ZM115.016 28.712L113.64 20.392L109.352 28.712H115.016ZM132.471 14.376L134.999 31.4L143.543 14.376H149.399L137.559 37H130.487L126.615 14.376H132.471ZM156.969 14.376L153.001 37H147.529L151.497 14.376H156.969ZM171.563 32.872H163.083L160.939 37H155.147L167.403 14.536H173.707L178.027 37H172.235L171.563 32.872ZM170.891 28.712L169.515 20.392L165.227 28.712H170.891ZM200.378 14.376L199.61 18.728H193.466L190.266 37H184.762L187.962 18.728H181.882L182.65 14.376H200.378ZM212.605 14.024C214.674 14.024 216.466 14.44 217.981 15.272C219.495 16.0827 220.658 17.2347 221.469 18.728C222.279 20.2 222.685 21.9067 222.685 23.848C222.685 24.68 222.599 25.5867 222.429 26.568C222.066 28.6587 221.309 30.5147 220.157 32.136C219.026 33.736 217.575 34.984 215.805 35.88C214.055 36.776 212.103 37.224 209.949 37.224C207.837 37.224 206.013 36.8187 204.477 36.008C202.962 35.1973 201.799 34.056 200.989 32.584C200.199 31.112 199.805 29.3947 199.805 27.432C199.805 26.6 199.89 25.672 200.061 24.648C200.423 22.5787 201.181 20.744 202.333 19.144C203.485 17.5227 204.935 16.264 206.685 15.368C208.455 14.472 210.429 14.024 212.605 14.024ZM212.189 19.112C210.461 19.112 208.978 19.6773 207.741 20.808C206.525 21.9173 205.746 23.4427 205.405 25.384C205.298 26.024 205.245 26.5573 205.245 26.984C205.245 28.584 205.693 29.8427 206.589 30.76C207.485 31.656 208.743 32.104 210.365 32.104C212.071 32.104 213.533 31.5387 214.749 30.408C215.986 29.2773 216.775 27.7627 217.117 25.864C217.202 25.352 217.245 24.808 217.245 24.232C217.245 22.632 216.797 21.384 215.901 20.488C215.026 19.5707 213.789 19.112 212.189 19.112ZM236.904 14.376C239.25 14.376 241.021 14.8987 242.216 15.944C243.432 16.9893 244.04 18.376 244.04 20.104C244.04 20.6373 243.997 21.1173 243.912 21.544C243.613 23.1867 242.909 24.584 241.8 25.736C240.69 26.888 239.24 27.6773 237.448 28.104L241.256 37H235.208L231.816 28.456H230.568L229.064 37H223.591L227.56 14.376H236.904ZM238.28 21.864C238.322 21.5653 238.344 21.3413 238.344 21.192C238.344 19.72 237.437 18.984 235.624 18.984H232.264L231.208 24.712H234.6C236.733 24.712 237.96 23.7627 238.28 21.864ZM260.799 23.496L259.999 28.04H245.887L246.687 23.496H260.799Z" fill="white"/>
<path d="M281.406 37H275.934L269.214 23.112L266.782 37H261.31L265.278 14.376H270.75L277.438 28.392L279.902 14.376H285.374L281.406 37ZM299.073 14.024C301.143 14.024 302.935 14.44 304.449 15.272C305.964 16.0827 307.127 17.2347 307.937 18.728C308.748 20.2 309.153 21.9067 309.153 23.848C309.153 24.68 309.068 25.5867 308.897 26.568C308.535 28.6587 307.777 30.5147 306.625 32.136C305.495 33.736 304.044 34.984 302.273 35.88C300.524 36.776 298.572 37.224 296.417 37.224C294.305 37.224 292.481 36.8187 290.945 36.008C289.431 35.1973 288.268 34.056 287.457 32.584C286.668 31.112 286.273 29.3947 286.273 27.432C286.273 26.6 286.359 25.672 286.529 24.648C286.892 22.5787 287.649 20.744 288.801 19.144C289.953 17.5227 291.404 16.264 293.153 15.368C294.924 14.472 296.897 14.024 299.073 14.024ZM298.657 19.112C296.929 19.112 295.447 19.6773 294.209 20.808C292.993 21.9173 292.215 23.4427 291.873 25.384C291.767 26.024 291.713 26.5573 291.713 26.984C291.713 28.584 292.161 29.8427 293.057 30.76C293.953 31.656 295.212 32.104 296.833 32.104C298.54 32.104 300.001 31.5387 301.217 30.408C302.455 29.2773 303.244 27.7627 303.585 25.864C303.671 25.352 303.713 24.808 303.713 24.232C303.713 22.632 303.265 21.384 302.369 20.488C301.495 19.5707 300.257 19.112 298.657 19.112ZM344.78 14.376L335.404 37H328.62L327.66 21.864L321.356 37H314.572L313.132 14.376H319.084L319.116 30.76L325.964 14.376H331.948L333.036 30.76L338.86 14.376H344.78Z" fill="#E51A47"/>
</svg>