<?xml version="1.0" encoding="utf-8"?><svg viewBox="0 0 345 53" xmlns="http://www.w3.org/2000/svg" xmlns:xlink="http://www.w3.org/1999/xlink"><style>:root>svg{display:none}:root>svg:target{display:block}</style><svg fill="none" viewBox="0 0 24 24" id="download-game" xmlns="http://www.w3.org/2000/svg"><path d="M3.5 4.5H18c.739 0 1.452.275 2 .77V4.5a2 2 0 0 0-2-2h-5.81a2.034 2.034 0 0 1-1.027-.283L9.85 1.425A3.03 3.03 0 0 0 8.31 1H3.5a2 2 0 0 0-2 2v2.27a2.984 2.984 0 0 1 2-.77ZM18 5.5H3.5a2 2 0 0 0-2 2v8a2 2 0 0 0 2 2h5.409c.129-.533.284-1.077.464-1.612a3.495 3.495 0 0 1 4.43-2.206c.238.08.467.187.682.318h3.03A3.413 3.413 0 0 1 20 13.572V7.5a2 2 0 0 0-2-2Zm-4.715 4.64-2.235 2.236a.421.421 0 0 1-.6 0L8.215 10.14a.25.25 0 0 1 .177-.427h1.089V7.5a.5.5 0 0 1 .5-.5h1.538a.5.5 0 0 1 .5.5v2.213h1.089a.25.25 0 0 1 .177.428Z" fill="#A342EB"/><path d="M22.488 20.05a15.583 15.583 0 0 0-.81-3.847 2.5 2.5 0 0 0-3.163-1.575c-.25.085-.485.21-.694.372h-3.643a2.394 2.394 0 0 0-.693-.37 2.5 2.5 0 0 0-3.163 1.576 15.59 15.59 0 0 0-.81 3.844c-.089 1.61.313 2.576 1.194 2.872.844.282 1.712-.195 2.577-1.425h5.434c.704 1 1.409 1.504 2.103 1.503.16 0 .321-.026.474-.078.881-.293 1.283-1.259 1.194-2.872ZM19 16.5a.5.5 0 1 1 0 1 .5.5 0 0 1 0-1Zm-5 2h-.5v.5a.5.5 0 0 1-1 0v-.5H12a.5.5 0 0 1 0-1h.5V17a.5.5 0 0 1 1 0v.5h.5a.5.5 0 0 1 0 1Zm4 0a.5.5 0 1 1 0-1 .5.5 0 0 1 0 1Zm1 1a.5.5 0 1 1 0-1 .5.5 0 0 1 0 1Zm1-1a.5.5 0 1 1 0-1 .5.5 0 0 1 0 1Z" fill="#A342EB"/></svg><svg fill="none" viewBox="0 0 24 24" id="games" xmlns="http://www.w3.org/2000/svg"><path d="M16.931 2H3.677a2.321 2.321 0 0 0-2.318 2.323v7.25c0 .643.258 1.223.679 1.644.416.42.996.679 1.639.679.154 0 .272.136.25.294l-.39 2.5c-.041.244.249.39.42.217l3.003-2.939a.258.258 0 0 1 .177-.072h9.794a2.322 2.322 0 0 0 2.323-2.323v-7.25A2.325 2.325 0 0 0 16.931 2ZM6.666 7.75l-.643.626a.246.246 0 0 0-.068.213l.154.883a.238.238 0 0 1-.344.249l-.797-.417a.231.231 0 0 0-.218 0l-.801.417a.234.234 0 0 1-.34-.25l.15-.882a.237.237 0 0 0-.068-.209l-.643-.63a.24.24 0 0 1 .13-.407l.888-.126a.241.241 0 0 0 .182-.127l.398-.81a.237.237 0 0 1 .426 0l.394.81a.241.241 0 0 0 .18.127l.888.126a.24.24 0 0 1 .132.408Zm5.447 0-.643.626a.246.246 0 0 0-.068.213l.154.883a.238.238 0 0 1-.344.249l-.797-.417a.23.23 0 0 0-.217 0l-.797.417a.237.237 0 0 1-.344-.25l.15-.882a.237.237 0 0 0-.069-.209l-.643-.63a.24.24 0 0 1 .131-.407l.888-.126a.241.241 0 0 0 .181-.127l.399-.81a.237.237 0 0 1 .425 0l.394.81a.24.24 0 0 0 .181.127l.888.126a.24.24 0 0 1 .131.408Zm5.448 0-.643.626a.243.243 0 0 0-.064.213l.15.883c.036.19-.168.34-.344.249l-.793-.417a.24.24 0 0 0-.222 0l-.797.417a.237.237 0 0 1-.344-.25l.15-.882a.237.237 0 0 0-.068-.209l-.643-.63a.24.24 0 0 1 .131-.407l.892-.126a.234.234 0 0 0 .177-.127l.398-.81a.237.237 0 0 1 .426 0l.398.81c.032.068.1.118.177.127l.887.126a.24.24 0 0 1 .132.408Z" fill="#A342EB"/><path d="M22.642 7.361v7.255c0 .643-.263 1.223-.68 1.644a2.336 2.336 0 0 1-1.643.674.25.25 0 0 0-.245.295l.385 2.5a.25.25 0 0 1-.421.221l-3.003-2.943a.281.281 0 0 0-.176-.073H7.064c-.516 0-.992-.167-1.376-.453l1.716-1.68h9.527c1.78 0 3.229-1.449 3.229-3.228V5.038h.159a2.322 2.322 0 0 1 2.323 2.323Z" fill="#A342EB"/></svg><svg fill="none" viewBox="0 0 345 53" id="logo" xmlns="http://www.w3.org/2000/svg"><path d="M8.624 50.169c17.531-2.581 33.455-9.545 49.67-15.583-1.752-.17-3.432-.487-5.185.316-5.722 2.63-11.59 4.919-17.556 6.94-1.168.39-2.093.413-2.921-.536-.682-.78-1.388-.804-2.362-.39a1283.264 1283.264 0 0 1-15.875 6.599c-.317.121-.78.706-1.096 0-.243-.585.049-.999.609-1.266.706-.341 1.412-.73 2.435-1.267-.974-.073-1.632-.073-2.265-.17-2.02-.292-3.676-1.388-5.283-2.557-.56-.413-1.12-.803-1.875-.706-.292.049-.609.098-.73.366-.147.316.145.51.34.706 1.583 1.68 3.165 3.36 4.724 5.04.219.243.852.487.414.9-.365.342-.925.463-1.412-.048-1.023-1.023-2.094-2.02-3.141-3.044-.974-.925-1.973-1.801-2.898-2.75-.463-.488-.876-.634-1.46-.269-.415.244-.853.463-1.316.585-.438.097-.998.925-1.29.219-.268-.633-.244-1.559.609-2.021 1.022-.56 2.07-1.072 3.116-1.607.292-.146.56-.317.828-.487.244-.146.511-.365.317-.658-.17-.267-.439-.024-.633.073-.926.463-1.875.926-2.825 1.413-.34-.706-.122-1.145.463-1.461.414-.244.852-.463 1.266-.73 2.24-1.486 4.285-1.462 6.403.365a34.178 34.178 0 0 0 5.625 4.017c1.388.78 2.703.925 4.237.195 4.26-2.021 8.497-4.115 12.66-6.355.171-.097.366-.195.536-.292.293-.195.755-.414.512-.804-.22-.365-.585.025-.828.146-2.118.999-4.237 2.021-6.355 2.995-.244.122-.609.609-.9.049-.244-.438-.05-.755.389-.974.292-.146.608-.268.827-.487.293-.268 1.17-.195.73-.95-.34-.56-.803-.925-1.606-.487-1.948 1.047-3.969 1.997-5.965 2.97-.317.171-.658.293-1.072.488.122-1.826.414-3.336 2.386-4.115 1.656-.633 3.166-1.607 4.724-2.435.244-.122.511-.268.706-.462.268-.268.195-.61.073-.901-.17-.439-.511-.195-.706-.073-1.924 1.51-3.165.487-4.31-1.072-.097-.122-.219-.243-.34-.365-1.51-1.558-1.461-1.704.462-2.873 2.143-1.29 4.407-1.071 6.72-.755 9.642 1.34 19.284 2.703 28.95 4.042.974.146 1.778.316 1.096 1.558-.243.463.122.512.414.658 1.729.876 3.36 1.12 5.26.146 3.092-1.559 6.233-3.068 9.203-4.894.682-.414 1.193-.56 1.777.073.268.292.707.56 1.072.17.34-.365-.097-.657-.244-.95-1.387-2.507-2.556-5.137-3.554-7.815-.317-.828-.755-1.12-1.608-1.12-2.702.024-5.113 1.047-7.572 1.948-4.82 1.801-9.398 4.09-13.854 6.622-1.096.633-2.021.682-3.117.585-1.485-.122-2.97-.317-4.48-.39-.803-.049-.925-.34-.779-1.071.195-.877.511-1.631 1.242-2.143 2.532-1.826 5.162-3.457 8.084-4.602 1.363-.535 2.678-.657 3.968.073 2.021 1.145 4.042 1.023 6.185.39 3.409-.998 6.793-2.07 10.3-2.727 2.702-.511 3.676 0 4.771 2.483.926 2.119 1.875 4.188 2.703 6.355.974 2.508.536 3.75-1.704 5.284-3.53 2.386-7.45 4.018-11.347 5.698-8.96 3.822-18.358 6.403-27.61 9.398-7.768 2.508-15.56 4.894-23.327 7.353-.95.292-1.826.609-2.19-.73-.074-.244-.293-.365-.585-.244-1.412.585-1.778-.56-2.63-1.582Zm17.847-23.862c-.024.122-.024.22-.048.341.17.049.365.122.536.146 9.008 1.826 18.042 3.677 27.05 5.503.926.195 1.778 0 2.435-.73.244-.268.658-.488.536-.877-.146-.414-.633-.268-.974-.317-7.913-1.095-15.85-2.215-23.764-3.311-1.9-.268-3.847-.511-5.77-.755Zm16.63-2.824c1.242.268 2.314.706 3.166.268a178.084 178.084 0 0 1 5.673-2.8c-3.75-1.461-6.111.681-8.838 2.532Zm7.378-4.14c.584.244 1.096.415 1.534.658.536.292 1.485.22 1.534.925.024.633-.9.658-1.363.998a.185.185 0 0 1-.098.05c-.316.17-.584.389-.365.754.195.316.487.146.755.024 1.071-.56 2.142-1.095 3.214-1.655.706-.366.584-.658-.073-.926-.974-.39-1.924-.803-2.898-1.168-.706-.244-1.412-.22-2.24.34ZM80.33 21.9c.414.073.609.365.804.706 3.019 4.894 5.43 10.056 6.671 15.73.049.267.195.56.195.827 0 .633-.024 1.412-.706 1.656-.657.243-.804-.536-1.096-.925-.584-.78-1.022-1.656-1.655-2.386-3.166-3.775-4.408-8.376-5.722-12.954-.17-.56 0-.852.292-1.217h-.025c.487-.025.707-.293.73-.73l-.023.024c.292-.073.486-.17.243-.512l-.024.025c.39.146.438.024.316-.244Zm1.729 10.056c1.266 2.897 3.19 5.381 4.943 8.035.414-.536.462-.974.195-1.388-1.461-2.386-3.239-4.553-5.138-6.647ZM78.796 17.663c-.852.293-1.704-.048-2.459.293-.438.195-.511-.244-.682-.487-3.092-4.7-5.162-9.837-6.379-15.315-.049-.244-.097-.487-.097-.706.024-.56.073-1.218.681-1.413.61-.195.755.463 1.023.852 1.315 1.924 2.605 3.896 3.92 5.82.633.95 1.169 1.923 1.485 3.019.828 2.63 1.656 5.26 2.508 7.937Zm-3.969-8.619c.17-.097.341-.195.487-.292-1.533-2.703-3.384-5.21-5.21-7.962-.365.828-.341 1.364.024 1.85 1.558 2.143 3.117 4.262 4.7 6.404Z" fill="#E51A47"/><path d="M51.72 27.038c3.434-1.388 6.892-2.752 10.325-4.164.413-.17.633-.049.95.244 1.923 1.899 1.923 1.899.632 4.334-1.047 1.947-1.047 1.947-3.214 1.51-2.873-.56-5.77-1.12-8.643-1.657-.05-.072-.05-.17-.05-.267Z" fill="#E51A47"/><path d="M67.912 19.027c.098 1.315.122 2.362-.121 3.384-.365 1.437-.025 2.581 1.022 3.604.22.22.901.511.341.998-.511.439-1.022.365-1.363-.292-.122-.195-.317-.365-.633-.73-.414 1.704-1.242 2.873-3.068 3.068.657-1.12 1.169-2.24 1.68-3.36.34-.755.34-1.34-.292-1.948-.365-.366-.682-.804-.974-1.242-.122-.195-.682-.414-.122-.73.365-.195.755-.585 1.144-.025.317.414.633.828 1.12 1.437.414-1.388.78-2.63 1.266-4.164ZM79.137 23.337c-.681-.098-1.047-.512-1.29-1.145-.39-.998-.877-1.972-1.315-2.97-.22-.512-.268-.974.511-.998 1.29-.025 2.581-.073 3.847.121.828.122.974.512.633 1.266-.34.78-1.047 1.388-1.193 2.265l.025-.024c-.268-.098-.268.072-.268.267l.024-.024c-.292.073-.487.17-.243.511l.024-.024c-.56-.024-.803.243-.755.755Zm2.046-4.31c-1.194-.414-2.119-.268-3.02-.268-.34 0-.779-.17-.998.22-.22.389.17.73.292 1.12.122.413.39.438.755.267.9-.438 1.802-.828 2.97-1.339Z" fill="#E51A47"/><path d="M115.688 32.872h-8.48L105.064 37h-5.792l12.256-22.464h6.304L122.152 37h-5.792l-.672-4.128Zm-.672-4.16-1.376-8.32-4.288 8.32h5.664Zm17.455-14.336 2.528 17.024 8.544-17.024h5.856L137.559 37h-7.072l-3.872-22.624h5.856Zm24.498 0L153.001 37h-5.472l3.968-22.624h5.472Zm14.594 18.496h-8.48L160.939 37h-5.792l12.256-22.464h6.304L178.027 37h-5.792l-.672-4.128Zm-.672-4.16-1.376-8.32-4.288 8.32h5.664Zm29.487-14.336-.768 4.352h-6.144L190.266 37h-5.504l3.2-18.272h-6.08l.768-4.352h17.728Zm12.227-.352c2.069 0 3.861.416 5.376 1.248a8.387 8.387 0 0 1 3.488 3.456c.81 1.472 1.216 3.179 1.216 5.12 0 .832-.086 1.739-.256 2.72-.363 2.09-1.12 3.947-2.272 5.568a11.737 11.737 0 0 1-4.352 3.744c-1.75.896-3.702 1.344-5.856 1.344-2.112 0-3.936-.405-5.472-1.216-1.515-.81-2.678-1.952-3.488-3.424-.79-1.472-1.184-3.19-1.184-5.152 0-.832.085-1.76.256-2.784.362-2.07 1.12-3.904 2.272-5.504a11.952 11.952 0 0 1 4.352-3.776c1.77-.896 3.744-1.344 5.92-1.344Zm-.416 5.088c-1.728 0-3.211.565-4.448 1.696-1.216 1.11-1.995 2.635-2.336 4.576-.107.64-.16 1.173-.16 1.6 0 1.6.448 2.859 1.344 3.776.896.896 2.154 1.344 3.776 1.344 1.706 0 3.168-.565 4.384-1.696 1.237-1.13 2.026-2.645 2.368-4.544a9.964 9.964 0 0 0 .128-1.632c0-1.6-.448-2.848-1.344-3.744-.875-.917-2.112-1.376-3.712-1.376Zm24.715-4.736c2.346 0 4.117.523 5.312 1.568 1.216 1.045 1.824 2.432 1.824 4.16 0 .533-.043 1.013-.128 1.44-.299 1.643-1.003 3.04-2.112 4.192-1.11 1.152-2.56 1.941-4.352 2.368L241.256 37h-6.048l-3.392-8.544h-1.248L229.064 37h-5.473l3.969-22.624h9.344Zm1.376 7.488c.042-.299.064-.523.064-.672 0-1.472-.907-2.208-2.72-2.208h-3.36l-1.056 5.728h3.392c2.133 0 3.36-.95 3.68-2.848Zm22.519 1.632-.8 4.544h-14.112l.8-4.544h14.112Z" fill="#fff"/><path d="M281.406 37h-5.472l-6.72-13.888L266.782 37h-5.472l3.968-22.624h5.472l6.688 14.016 2.464-14.016h5.472L281.406 37Zm17.667-22.976c2.07 0 3.862.416 5.376 1.248a8.375 8.375 0 0 1 3.488 3.456c.811 1.472 1.216 3.179 1.216 5.12 0 .832-.085 1.739-.256 2.72-.362 2.09-1.12 3.947-2.272 5.568a11.721 11.721 0 0 1-4.352 3.744c-1.749.896-3.701 1.344-5.856 1.344-2.112 0-3.936-.405-5.472-1.216-1.514-.81-2.677-1.952-3.488-3.424-.789-1.472-1.184-3.19-1.184-5.152 0-.832.086-1.76.256-2.784.363-2.07 1.12-3.904 2.272-5.504a11.96 11.96 0 0 1 4.352-3.776c1.771-.896 3.744-1.344 5.92-1.344Zm-.416 5.088c-1.728 0-3.21.565-4.448 1.696-1.216 1.11-1.994 2.635-2.336 4.576-.106.64-.16 1.173-.16 1.6 0 1.6.448 2.859 1.344 3.776.896.896 2.155 1.344 3.776 1.344 1.707 0 3.168-.565 4.384-1.696 1.238-1.13 2.027-2.645 2.368-4.544a9.854 9.854 0 0 0 .128-1.632c0-1.6-.448-2.848-1.344-3.744-.874-.917-2.112-1.376-3.712-1.376Zm46.123-4.736L335.404 37h-6.784l-.96-15.136L321.356 37h-6.784l-1.44-22.624h5.952l.032 16.384 6.848-16.384h5.984l1.088 16.384 5.824-16.384h5.92Z" fill="#E51A47"/></svg><svg fill="none" viewBox="0 0 24 24" id="registration" xmlns="http://www.w3.org/2000/svg"><path fill-rule="evenodd" clip-rule="evenodd" d="M10 4h4c3.771 0 5.657 0 6.829 1.172C22 6.343 22 8.229 22 12c0 3.771 0 5.657-1.171 6.828C19.657 20 17.77 20 14 20h-4c-3.771 0-5.657 0-6.828-1.172C2 17.657 2 15.771 2 12c0-3.771 0-5.657 1.172-6.828C4.343 4 6.229 4 10 4Zm3.25 5a.75.75 0 0 1 .75-.75h5a.75.75 0 0 1 0 1.5h-5a.75.75 0 0 1-.75-.75Zm1 3a.75.75 0 0 1 .75-.75h4a.75.75 0 0 1 0 1.5h-4a.75.75 0 0 1-.75-.75Zm1 3a.75.75 0 0 1 .75-.75h3a.75.75 0 0 1 0 1.5h-3a.75.75 0 0 1-.75-.75ZM11 9a2 2 0 1 1-4 0 2 2 0 0 1 4 0Zm-2 8c4 0 4-.895 4-2s-1.79-2-4-2c-2.209 0-4 .895-4 2s0 2 4 2Z" fill="#A342EB"/></svg><svg fill="none" viewBox="0 0 24 24" id="strategies" xmlns="http://www.w3.org/2000/svg"><path d="M18.597 8.607a8.083 8.083 0 0 1 1.012 3.925c0 4.485-3.649 8.133-8.133 8.133-4.485 0-8.134-3.648-8.134-8.133 0-4.485 3.649-8.133 8.134-8.133 1.386 0 2.693.35 3.837.964l1.675-1.675a10.35 10.35 0 0 0-5.512-1.574 10.35 10.35 0 0 0-7.367 3.051 10.35 10.35 0 0 0-3.051 7.367A10.35 10.35 0 0 0 4.109 19.9a10.35 10.35 0 0 0 7.367 3.051 10.35 10.35 0 0 0 7.366-3.051 10.35 10.35 0 0 0 3.052-7.367c0-2.013-.568-3.94-1.627-5.596l-1.67 1.67Z" fill="#A342EB"/><path d="M12.273 10.607a2.078 2.078 0 0 0-2.256.448 2.062 2.062 0 0 0 0 2.926c.812.811 2.12.811 2.926 0a2.077 2.077 0 0 0 .448-2.255l5.944-5.944.99.13 2.617-2.619-1.979-.264-.264-1.98-2.618 2.625.13.99-5.938 5.943Z" fill="#A342EB"/><path d="M15.351 11.852a3.939 3.939 0 0 1-3.876 4.614 3.939 3.939 0 0 1-3.934-3.934 3.939 3.939 0 0 1 4.497-3.894l1.841-1.842a6.185 6.185 0 0 0-2.403-.483c-3.43 0-6.22 2.79-6.22 6.22 0 3.428 2.79 6.218 6.22 6.218 3.429 0 6.219-2.79 6.219-6.219 0-.888-.188-1.733-.525-2.499l-1.819 1.82Z" fill="#A342EB"/></svg></svg>